<?xml version="1.0" encoding="UTF-8" standalone="no"?>
<!-- Created with Inkscape (http://www.inkscape.org/) -->

<svg
   width="255"
   height="255"
   viewBox="0 0 255 255.00003"
   version="1.1"
   id="svg1"
   sodipodi:docname="pause.svg"
   inkscape:export-filename="pause.svg"
   inkscape:export-xdpi="96"
   inkscape:export-ydpi="96"
   xmlns:inkscape="http://www.inkscape.org/namespaces/inkscape"
   xmlns:sodipodi="http://sodipodi.sourceforge.net/DTD/sodipodi-0.dtd"
   xmlns="http://www.w3.org/2000/svg"
   xmlns:svg="http://www.w3.org/2000/svg">
  <sodipodi:namedview
     id="namedview1"
     pagecolor="#ffffff"
     bordercolor="#000000"
     borderopacity="0.25"
     inkscape:showpageshadow="2"
     inkscape:pageopacity="0.0"
     inkscape:pagecheckerboard="0"
     inkscape:deskcolor="#d1d1d1">
    <inkscape:page
       x="0"
       y="0"
       width="255"
       height="255.00003"
       id="page2"
       margin="0"
       bleed="0" />
  </sodipodi:namedview>
  <defs
     id="defs1" />
  <g
     id="layer1"
     transform="matrix(0.24099721,0,0,0.24099721,7.0013898,7.0013898)">
    <path
       id="rect1"
       style="stroke-width:0.245;stroke-linecap:square"
       d="m 312.50002,298.3294 v 403.34125 a 48.329386,48.329386 45 0 0 48.32939,48.32939 h 28.34122 a 48.329386,48.329386 135 0 0 48.32939,-48.32939 V 298.3294 a 48.329386,48.329386 45 0 0 -48.32939,-48.32939 h -28.34122 a 48.329386,48.329386 135 0 0 -48.32939,48.32939 z m 250.00001,0 v 403.34125 a 48.329386,48.329386 45 0 0 48.32939,48.32939 h 28.34122 a 48.329386,48.329386 135 0 0 48.32939,-48.32939 V 298.3294 a 48.329386,48.329386 45 0 0 -48.32939,-48.32939 h -28.34122 a 48.329386,48.329386 135 0 0 -48.32939,48.32939 z"
       transform="matrix(1.664,0,0,1.664,-332.00002,-332.00002)" />
  </g>
</svg>
