<?xml version="1.0" encoding="UTF-8" standalone="no"?>
<!-- Created with Inkscape (http://www.inkscape.org/) -->

<svg
   width="1000"
   height="1000"
   viewBox="0 0 1000 1000"
   version="1.1"
   id="svg1"
   xmlns:inkscape="http://www.inkscape.org/namespaces/inkscape"
   xmlns:sodipodi="http://sodipodi.sourceforge.net/DTD/sodipodi-0.dtd"
   xmlns="http://www.w3.org/2000/svg"
   xmlns:svg="http://www.w3.org/2000/svg">
  <sodipodi:namedview
     id="namedview1"
     pagecolor="#ffffff"
     bordercolor="#000000"
     borderopacity="0.25"
     inkscape:showpageshadow="2"
     inkscape:pageopacity="0.0"
     inkscape:pagecheckerboard="0"
     inkscape:deskcolor="#d1d1d1"
     inkscape:document-units="px" />
  <defs
     id="defs1">
    <marker
       style="overflow:visible"
       id="RoundedArrow"
       refX="0"
       refY="0"
       orient="auto-start-reverse"
       inkscape:stockid="Rounded arrow"
       markerWidth="1.15"
       markerHeight="1.15"
       viewBox="0 0 1 1"
       inkscape:isstock="true"
       inkscape:collect="always"
       preserveAspectRatio="xMidYMid"
       markerUnits="strokeWidth">
      <path
         transform="scale(0.7)"
         d="m -0.21114562,-4.1055728 6.42229122,3.21114561 a 1,1 90 0 1 0,1.78885438 L -0.21114562,4.1055728 A 1.236068,1.236068 31.717474 0 1 -2,3 v -6 a 1.236068,1.236068 148.28253 0 1 1.78885438,-1.1055728 z"
         style="fill:context-stroke;fill-rule:evenodd;stroke:none"
         id="path8" />
    </marker>
    <marker
       style="overflow:visible"
       id="RoundedArrow-9"
       refX="0"
       refY="0"
       orient="auto-start-reverse"
       inkscape:stockid="Rounded arrow"
       markerWidth="1.15"
       markerHeight="1.15"
       viewBox="0 0 1 1"
       inkscape:isstock="true"
       inkscape:collect="always"
       preserveAspectRatio="xMidYMid"
       markerUnits="strokeWidth">
      <path
         transform="scale(0.7)"
         d="m -0.21114562,-4.1055728 6.42229122,3.21114561 a 1,1 90 0 1 0,1.78885438 L -0.21114562,4.1055728 A 1.236068,1.236068 31.717474 0 1 -2,3 v -6 a 1.236068,1.236068 148.28253 0 1 1.78885438,-1.1055728 z"
         style="fill:context-stroke;fill-rule:evenodd;stroke:none"
         id="path8-1" />
    </marker>
  </defs>
  <g
     inkscape:label="Layer 1"
     inkscape:groupmode="layer"
     id="layer1">
    <path
       id="path1"
       style="fill:none;stroke:#000000;stroke-width:15;stroke-linecap:square;stroke-miterlimit:4;stroke-dasharray:none;marker-start:url(#RoundedArrow)"
       d="M 873.54156,500 A 395.36682,395.36679 0 0 1 478.17474,895.36679 395.36682,395.36679 0 0 1 82.80792,500 395.36682,395.36679 0 0 1 478.17474,104.63321 395.36682,395.36679 0 0 1 873.54156,500 Z" />
    <g
       id="g1"
       transform="rotate(180,478.17474,500)">
      <path
         id="path1-7"
         style="fill:none;stroke:#000000;stroke-width:15;stroke-linecap:square;stroke-miterlimit:4;stroke-dasharray:none;marker-start:url(#RoundedArrow-9)"
         d="M 873.54156,500 A 395.36682,395.36679 0 0 1 478.17474,895.36679 395.36682,395.36679 0 0 1 82.80792,500 395.36682,395.36679 0 0 1 478.17474,104.63321 395.36682,395.36679 0 0 1 873.54156,500 Z" />
    </g>
  </g>
</svg>
