<?xml version="1.0" encoding="UTF-8" standalone="no"?>
<!-- Created with Inkscape (http://www.inkscape.org/) -->

<svg
   width="255"
   height="255"
   viewBox="0 0 67.468749 67.468748"
   version="1.1"
   id="svg1"
   xml:space="preserve"
   xmlns="http://www.w3.org/2000/svg"
   xmlns:svg="http://www.w3.org/2000/svg"><defs
     id="defs1" /><g
     id="layer1"
     transform="translate(-25.398455,-25.400532)"><g
       style="overflow:hidden;fill:currentColor"
       id="g1"
       transform="matrix(0.08109111,0,0,0.08109264,17.61409,17.615477)"><path
         d="m 759.7916,544.62743 c 1.66274,-9.7804 1.66274,-21.20471 1.66274,-32.62745 0,-11.42275 -1.66274,-21.20471 -1.66274,-32.62746 l 70.06588,-53.83215 c 6.68235,-4.89098 8.34353,-13.04628 3.34118,-21.20471 L 766.45513,291.76469 c -3.33961,-6.53177 -13.34432,-9.7804 -20.02667,-6.53177 l -83.42902,32.62902 C 646.31238,304.8141 626.30297,293.38978 606.27788,285.23292 l -11.68314,-86.45804 c -1.66275,-6.51608 -8.34353,-13.04784 -16.68706,-13.04784 H 444.42062 c -8.34196,0 -15.02274,6.53176 -16.68549,13.04784 l -13.34588,86.45804 c -20.02666,8.15686 -38.3749,19.57961 -56.73882,32.62902 l -83.42902,-32.62902 c -8.34353,-3.24863 -16.68706,0 -20.02667,6.53177 l -66.74352,112.57254 c -3.32392,6.51451 -1.66432,16.31216 3.3396,21.20471 l 71.75059,53.83058 c 0,11.42275 -1.66274,21.20471 -1.66274,32.62746 0,11.42274 1.66274,21.2047 1.66274,32.62745 l -70.06745,53.83215 c -6.68235,4.89098 -8.34196,13.04628 -3.34117,21.20471 l 66.74352,112.57098 c 3.34118,6.53176 13.34589,9.78039 20.02667,6.53176 l 83.43059,-32.62902 c 16.68549,13.04784 36.69647,24.47216 56.72156,32.62902 l 13.34589,86.45804 c 1.67686,8.15686 8.34196,13.04784 16.68549,13.04784 h 133.48705 c 8.34353,0 15.02432,-6.53176 16.68706,-13.04784 l 13.36157,-86.45804 c 20.01098,-8.15686 38.3749,-19.57961 56.72157,-32.62902 l 83.43058,32.62902 c 8.34196,3.24863 16.68549,0 20.02667,-6.53176 l 66.74353,-112.57255 c 3.33961,-6.51451 1.66274,-16.31216 -3.34118,-21.20471 z m -248.62588,81.56862 c -65.08078,0 -116.8,-50.5647 -116.8,-114.19607 0,-63.63138 51.71922,-114.19608 116.8,-114.19608 65.08078,0 116.80157,50.5647 116.80157,114.19608 0,63.63137 -51.72079,114.19607 -116.80157,114.19607 z"
         id="path1"
         style="display:inline;stroke-width:0.784314" /></g></g></svg>
